<?xml version="1.0"?>
<svg xmlns:rdf="http://www.w3.org/1999/02/22-rdf-syntax-ns#" xmlns="http://www.w3.org/2000/svg" xmlns:cc="http://web.resource.org/cc/" xmlns:dc="http://purl.org/dc/elements/1.1/" xmlns:svg="http://www.w3.org/2000/svg" id="svg2" viewBox="0 0 583.56 228.28" version="1.0">
  <g id="layer1" transform="translate(-51.335 -48.676)">
    <path id="path2635" d="m377.73 276.04c-1.4335-1.3706-19.622-2.4311-20.39-1.1889-0.4192 0.67829-1.5756 0.54235-3.3889-0.39837-3.7508-1.9459-7.1014-2.1198-21.78-1.1302-6.9349 0.46753-13.685 0.49711-15 0.06574-2.1111-0.69251-1.8058-0.92584 2.609-1.9934l5-1.209-5-0.1506c-4.67-0.13-4.87-0.24-3.02-1.64 1.2187-0.92119 3.0092-1.2711 4.6548-0.90965 1.4708 0.32305 2.9687 0.11102 3.3285-0.47118 0.6528-1.0563-4.7141-1.4291-17.833-1.2387-3.228 0.04684-5.6048-0.17922-5.2816-0.50235 0.77921-0.77922 3.5827-1.0366 12.96-1.1899 4.9217-0.08043 7.5805-0.49736 7.191-1.1276-0.33992-0.55-2.504-1.0143-4.809-1.0318-3.6799-0.02793-3.9796-0.19236-2.4573-1.3483 1.5511-1.1778 1.3952-1.3261-1.4799-1.4078-1.7674-0.05025-3.3726-0.56852-3.567-1.1517-0.19439-0.58319-2.0894-1.0604-4.2111-1.0604-4.0736 0-6.2238-1.5312-3.2379-2.3058 2.0226-0.52471-1.3174-0.66255-18.613-0.76818-7.5921-0.04636-12.791 0.33984-13.45 0.99921-0.59112 0.59112-3.7598 1.0748-7.0414 1.0748-6.7272 0-7.1313 0.7988-0.71666 1.4167 4.2164 0.40612 6.9734 1.5833 3.7082 1.5833-0.93966 0-2.6745 0.9-3.8552 2-1.9394 1.8068-1.9718 2-0.33575 2 1.4964 0 1.5948 0.26058 0.56612 1.5-1.0163 1.2246-0.95779 1.5 0.31854 1.5 0.85988 0 1.8681-0.49303 2.2406-1.0956 0.40959-0.66272 2.1122-0.85564 4.309-0.48827 1.9975 0.33404 4.9819 0.6069 6.6319 0.60635 2.3545-0.00079 2.656 0.20435 1.401 0.95344-1.9562 1.1677-15.891 2.9355-17.725 2.2488-0.7284-0.27263-3.0046 0.05884-5.0582 0.7366-2.693 0.88879-4.972 0.95642-8.1756 0.24261l-4.4418-0.98968 3.8724-0.10709c3.3086-0.0915 3.6927-0.32364 2.6381-1.5944-0.67888-0.81799-0.9731-2.168-0.65383-3 0.43482-1.1331-0.1376-1.5127-2.2811-1.5127-1.7149 0-3.1106-0.64891-3.483-1.6193-0.48943-1.2754-0.11612-1.5227 1.7578-1.1645 1.3085 0.25015 3.1562-0.11333 4.1058-0.80773 1.5734-1.1505 1.4568-1.4021-1.3151-2.8355-1.6729-0.86512-5.4763-1.5729-8.4518-1.5729-2.9756 0-7.6104-0.3313-10.3-0.73623l-4.8896-0.73623 4.5-0.61358c4.4699-0.60947 4.4602-0.61458-1.4398-0.76377-3.2669-0.0826-8.5692-0.69327-11.783-1.357-4.6881-0.96832-6.4789-0.94932-9.0602 0.09613-1.7694 0.71664-5.2422 1.2142-7.7172 1.1057-7.6391-0.33486-29.389-0.91917-31.5-0.84625-13.886 0.47958-38.489 0.15485-38.494-0.50807-0.00327-0.47263-15.945-0.6303-35.426-0.35039l-35.42 0.50894-0.6761-4.9158c-0.45883-3.3361-1.288-5.2433-2.58-5.9348-2.3014-1.2317-2.5-2.9486-0.34107-2.9486 1.0375 0 1.4577-0.73787 1.25-2.1951-0.26138-1.8339 0.34527-2.34 3.6871-3.0758 4.0135-0.88369 12.546-0.46712 15.67 0.76501 1.2319 0.48585 1.757 0.04801 2-1.6676 0.18126-1.2796 0.68348-2.1014 1.116-1.8264 0.43256 0.275 1.2132-0.175 1.7347-1 0.7476-1.1826 0.95818-0.97108 0.99533 1 0.045789 2.4296 0.089003 2.4446 1.5348 0.53217 0.81825-1.0823 2.5142-2.0128 3.7687-2.0677 1.2545-0.05492 2.8248-0.43594 3.4894-0.84671 1.8423-1.1386 5.4228 0.33459 4.7943 1.9726-0.29752 0.77531-0.13538 1.4097 0.36029 1.4097 0.49568 0 1.2106-0.97487 1.5888-2.1664l0.68758-2.1664 1.8576 2.4164c1.6614 2.1612 1.8599 2.214 1.8798 0.49971 0.01223-1.0542 0.31524-1.6237 0.67336-1.2655 0.35812 0.35812 1.1456 0.03803 1.75-0.7113 1.7127-2.1234 8.5989-0.91982 8.5989 1.5029 0 1.0398 0.6443 1.8906 1.4318 1.8906 0.95276 0 1.3374-0.88537 1.1496-2.6463-0.5392-5.0574 1.9107-7.9476 8.2429-9.7244 3.1938-0.89613 6.801-1.6293 8.016-1.6293 1.453 0 2.544-0.88066 3.1873-2.5728 1.3086-3.4417 4.2933-2.839 4.9646 1.0025 0.86113 4.9277 3.0077 4.3572 3.0077-0.79932 0-8.3505 2.0543-10.393 12.264-12.194 2.0702-0.3652 4.194-1.4002 4.7196-2.3001 0.52554-0.89984 0.9761-1.1861 1.0012-0.63607 0.02515 0.55 0.42029 0.40935 0.87809-0.31255 0.4578-0.72191 2.2288-1.3523 3.9356-1.4008 2.7972-0.07953 5.7149-2.7867 3.0034-2.7867-0.62441 0-0.89344-0.24185-0.59784-0.53744 0.29559-0.29559 1.7443 0.01243 3.2193 0.6845 2.2361 1.0189 3.1558 0.94198 5.5335-0.46255 1.5684-0.92648 3.5697-1.6845 4.4474-1.6845 0.87764 0 1.5957-0.675 1.5957-1.5s0.66088-1.5 1.4686-1.5c0.89459 0 1.2436 0.58629 0.89301 1.5-0.5425 1.4137 1.0318 1.9304 5.3884 1.7686 0.6875-0.02554 1.25 1.0286 1.25 2.3425 0 2.0075-0.51888 2.4052-3.25 2.4912l-3.25 0.10236 3.5 0.91185c1.925 0.50152 4.9612 0.95046 6.7472 0.99764 2.0058 0.05299 2.9981 0.48894 2.5955 1.1403-0.38174 0.61765-0.17345 0.75891 0.50278 0.34098 0.63498-0.39244 1.1545-1.334 1.1545-2.0924 0-1.775 3.9689-1.6022 6.187 0.26937 0.92784 0.78288 2.1653 1.1278 2.75 0.76644 0.58465-0.36133 1.063 0.04458 1.063 0.90204s0.45 1.559 1 1.559 0.94671 0.3375 0.88158 0.75c-0.42589 2.6973 0.34807 4.25 2.1184 4.25 1.1 0 2-0.5051 2-1.1224 0-0.77551 0.46364-0.73766 1.5 0.12244s1.5 0.89795 1.5 0.12244c0-0.61734 0.675-1.1224 1.5-1.1224 1.079 0 1.5-1.1036 1.5-3.9326 0-3.0544 0.44665-4.0744 2-4.5674 1.162-0.3688 2.0266-1.5493 2.0634-2.8174l0.06338-2.1826 0.85815 2.125c0.83095 2.0576 3.4332 3.0133 10.515 3.8617 1.65 0.19766 3.225 0.4473 3.5 0.55477 0.275 0.10746 0.88487 0.1263 1.3553 0.04187 0.47039-0.08442 1.4805 0.3654 2.2447 0.99961 0.76418 0.63421 2.2176 0.93652 3.2299 0.6718 1.4417-0.37702 1.7517-0.01657 1.4305 1.6635-0.30913 1.6171 0.11339 2.1843 1.7174 2.3051 1.9719 0.14854 2.0808-0.18256 1.4908-4.5316-0.35014-2.5805-0.912-5.5918-1.2486-6.6918-0.33659-1.1-0.50404-2.5625-0.3721-3.25 0.13193-0.6875-0.22984-1.25-0.80395-1.25s-1.0438 0.37777-1.0438 0.83948c0 0.46172-1.1892 1.3813-2.6426 2.0435l-2.6426 1.204 0.67754-6.6131c0.70503-6.8816 2.1964-10.474 4.3481-10.474 0.77271 0 1.2594-1.3527 1.2594-3.5 0-1.925-0.44339-3.5-0.9853-3.5-1.4002 0 2.3397-5.8595 4.8719-7.6331 1.1643-0.81552 2.6357-1.1622 3.2697-0.77031 0.72791 0.44987 0.8803 0.2716 0.4135-0.4837-1.2306-1.9912 6.6931-0.87023 8.6188 1.2193 0.92873 1.0077 1.977 3.1452 2.3295 4.75 0.35247 1.6048 0.95938 2.9178 1.3487 2.9178 0.38931 0 0.81434 1.4625 0.94451 3.25 0.34899 4.7924 1.1483 6.75 2.7561 6.75 0.78793 0 1.4326-0.39752 1.4326-0.88337 0-1.1537 3.7973-2.1316 5.5964-1.4412 0.77195 0.29622 1.4036 1.1654 1.4036 1.9316 0 0.76615 0.45 1.393 1 1.393s1 0.86786 1 1.9286 0.73101 2.6596 1.6245 3.553c1.4993 1.4993 1.4631 1.7962-0.46946 3.8534-1.9298 2.0541-1.9787 2.451-0.62447 5.0613 0.8082 1.5578 1.4694 3.5309 1.4694 4.3847s0.3375 1.2149 0.75 0.80236c0.74904-0.74903 0.88968-1.2595 1.125-4.0833 0.23334-2.8001 2.125-1.5173 2.125 1.441 0 3.8076 1.4356 4.6234 3.8635 2.1955 1.0651-1.0651 2.319-1.5797 2.7865-1.1437 0.4675 0.43601 2.3125 0.56493 4.1 0.2865 2.6174-0.40769 3.25-0.97079 3.25-2.8927 0-1.7198-0.5587-2.3865-2-2.3865-2.3092 0-2.3187-0.03163-1.0248-3.4349 1.1022-2.8989 6.0248-3.7692 6.0248-1.0651 0 0.825-0.45 1.5-1 1.5s-1 1.8-1 4 0.45 4 1 4 1-1.1141 1-2.4758 0.94788-3.9492 2.1064-5.75c1.8453-2.8684 1.9095-2.2262 0.19601 1.9619-0.55322 1.3522 2.9542 2.9978 7.389 3.4669 2.5838 0.27326 2.7805 0.05691 2.4568-2.703-0.1935-1.65-0.80246-3.8447-1.3532-4.8772-0.72561-1.3601-0.63669-2.1026 0.32284-2.6956 0.72836-0.45015 0.97936-1.1634 0.55777-1.585-0.42158-0.42159-1.64-0.22105-2.7075 0.44562-2.5563 1.5964-2.7099 1.5631-4.012-0.86981-0.90507-1.6911-0.77088-2.3429 0.71481-3.4718 1.006-0.76444 2.3916-1.1917 3.079-0.94943 1.1419 0.40236 1.7918-3.3495 1.4718-8.4968-0.05128-0.825-0.34428-5.1918-0.65111-9.704l-0.55788-8.204 3.3769-2.5757c1.8573-1.4166 5.3419-3.1545 7.7436-3.8619 3.0104-0.88674 4.2835-1.7739 4.099-2.8565-0.14724-0.86366 0.4023-1.8274 1.2212-2.1416 1.1492-0.44102 1.6389 0.55955 2.1465 4.3862 0.3617 2.7267 1.0075 4.9576 1.4352 4.9576 0.42765 0 0.54363 0.89453 0.25772 1.9878-0.32921 1.2589 0.06973 2.2141 1.0879 2.6048 0.88424 0.33932 1.3904 0.96863 1.1247 1.3985-0.26565 0.42984 0.41379 1.016 1.5099 1.3027 1.3239 0.34621 1.7885 1.0538 1.384 2.108-0.3349 0.87273-1.0118 1.3378-1.5041 1.0335-0.49237-0.3043-0.89522 0.14828-0.89522 1.0057 0 0.85746 0.40718 1.559 0.90484 1.559 0.49767 0 0.67246 1.7326 0.38843 3.8502-0.41176 3.0698-0.15533 3.9888 1.2652 4.5339 1.0407 0.39935 2.1204 0.14975 2.5963-0.6002 1.1057-1.7426 1.0478-2.7839-0.15474-2.7839-1.2172 0-1.2581-1.0444-0.11186-2.8532 0.65269-1.03 1.3417-1.0941 2.8847-0.26831 1.5859 0.84875 2.151 0.76238 2.5958-0.39675 1.0925-2.847 4.6467-1.6892 6.1958 2.0183 0.80431 1.925 1.6838 3.5 1.9544 3.5 0.27059 0 0.26164-3.9375-0.0199-8.75-0.70994-12.135-6.4036-71.372-7.0584-73.437-0.29429-0.92765-1.5263-1.8789-2.7378-2.1138l-2.2027-0.42717 2.25-0.13618c1.9102-0.11562 2.2492-0.70249 2.2444-3.8862-0.00306-2.0625-0.48911-5.4915-1.0801-7.6199-0.76799-2.7659-0.7664-4.178 0.00557-4.95 0.77348-0.77348 1.0801-0.21898 1.0801 1.9532 0 3.785 0.74774 4.572 3.1315 3.2963 2.5028-1.3394 2.3572-3.3448-0.38148-5.2552-2.1905-1.528-2.131-1.5705 2.25-1.6067 3.2003-0.026413 4.0686 0.23557 3.0064 0.90709-0.91818 0.58048-1.3736 2.0874-1.1823 3.9117 0.27287 2.6014-0.03633 3.0073-2.5064 3.2905-2.7515 0.31537-2.8148 0.46136-2.6924 6.2144 0.20752 9.7593 2.54 23.735 4.0585 24.317 0.91145 0.34976 1.0467 0.911 0.40569 1.6834-1.1756 1.4165-0.70245 9.6972 1.3494 23.618 2.1155 14.353 2.4158 16.91 2.4937 21.239 0.06637 3.6876 0.13311 3.75 4.0085 3.75 4.7645 0 5.3328-0.75178 4.2979-5.686-1.5894-7.5782-0.5206-9.0148 7.061-9.4909 4.5438-0.28536 6.5328-2.1148 4.7-4.3231-0.68469-0.825-1.8507-1.5-2.5911-1.5-0.78575 0-1.1065-0.62446-0.77057-1.5 0.54948-1.4319-0.55059-1.9431-3.3884-1.5746-1.9345 0.25121-1.434-1.115 1.7906-4.8876 2.3009-2.6918 2.9594-3.0501 2.9594-1.6102 0 1.0186-0.7875 2.5008-1.75 3.2939-1.6563 1.3647-1.6519 1.4107 0.08179 0.86024 1.0075-0.3199 2.245-0.58164 2.75-0.58164 1.7723 0 1.0038-5.831-0.83179-6.3107-0.9625-0.25153 0.725-0.4779 3.75-0.50304 3.6798-0.030587 4.8381 0.21617 3.5 0.74561-1.1 0.43523-2.5625 0.58046-3.25 0.32273s-1.25-0.018604-1.25 0.5314 0.675 1.259 1.5 1.5756c0.825 0.31658 1.5 1.2647 1.5 2.107 0 2.2303 2.0971 1.8761 2.7073-0.45737 0.28604-1.0938 0.9035-1.7518 1.3722-1.4621 0.46864 0.28964 0.10913 2.0846-0.79891 3.9888-1.1628 2.4384-2.318 3.4621-3.9068 3.4621-2.4681 0-4.1949 1.8446-2.679 2.8618 0.52308 0.35101 1.2526 1.4542 1.621 2.4516 0.3685 0.99736 1.1305 1.5288 1.6934 1.1809 0.56286-0.34786 0.78369-1.0203 0.49075-1.4943-0.29294-0.47399-0.07528-1.1445 0.48369-1.4899 0.55897-0.34546 1.0163 0.01834 1.0163 0.80846 0 0.79011 0.675 1.9968 1.5 2.6815 1.1148 0.92517 1.5 0.94205 1.5 0.06574 0-0.82315 0.61713-0.74689 2.0441 0.25259 2.5796 1.8068 5.9559 8.3424 5.9559 11.529 0 2.2968 0.23612 2.3921 4.4826 1.8101 5.5896-0.76614 10.517 0.15574 10.517 1.9676 0 0.75625 0.90857 1.375 2.019 1.375 1.6383 0 1.9042 0.45783 1.4097 2.4278-0.73765 2.939 0.44795 7.3897 1.5105 5.6704 0.96511-1.5616 3.8423-0.36183 4.5607 1.9017 0.31687 0.99838 1.234 2.0677 2.0381 2.3762 2.2654 0.86931 1.7625 2.854-0.53807 2.1238-1.7406-0.55244-2-0.1797-2 2.8736 0 3.7724 1.6977 5.7335 3.058 3.5325 0.67503-1.0922 0.95251-1.0423 1.4528 0.26138 0.37804 0.98515 1.3517 1.4197 2.5051 1.1181 1.4864-0.38869 1.9501-1.5855 2.1854-5.6395l0.29866-5.1461 4 0.1777c11.213 0.49814 14.464 0.91019 14.378 1.8223-0.16751 1.7716 1.329 5.5 2.2077 5.5 1.0793 0-0.08368-3.2564-1.5123-4.2347-0.72121-0.49384-0.66316-0.7397 0.17706-0.75 1.914-0.02344 1.4856-2.8161-0.5-3.259-0.9625-0.21467 0.17733-0.73973 2.533-1.1668 3.9861-0.72265 4.5989-0.51756 8.8417 2.9591l4.5587 3.7355 8.3871-0.59189c6.8172-0.48109 8.6783-0.30067 9.9428 0.96388 1.9109 1.9109 0.34131 4.3439-2.8024 4.3439-1.1243 0-1.7921 0.25216-1.4839 0.56036 0.62346 0.62346 13.289 2.6943 16.003 2.6165 0.95167-0.02728 1.9907 0.37177 2.309 0.88677 0.75877 1.2277 2.4607 1.2058 2.4607-0.03169 0-0.53244-1.1022-1.5456-2.4494-2.2514-2.3328-1.2223-2.2284-1.2919 2.1924-1.463 3.2078-0.12415 5.4797 0.41695 7.3538 1.7514 3.4298 2.4423 3.5442 2.4368 12.607-0.60552 4.156-1.3951 7.7516-2.3414 7.9902-2.1028 0.23859 0.23859-2.6056 1.4452-6.3204 2.6815-6.3842 2.1245-11.374 5.5956-11.374 7.9125 0 0.575 0.61775 1.0454 1.3728 1.0454 0.92385 0 1.5415 1.7168 1.8887 5.25 0.61248 6.232 0.38963 6.75-2.9039 6.75-1.5859 0-2.3618 0.46468-2.0872 1.25 0.47523 1.3589 4.4856 1.4727 11.999 0.34042 3.2849-0.49505 4.548-1.0879 4.058-1.9046-0.41594-0.6934-0.01249-0.61903 0.97156 0.17909 1.2099 0.98126 3.0205 1.1643 6.442 0.6513 7.683-1.152 8.4158-1.8538 7.6855-7.3597-0.48852-3.6826-0.27112-5.0405 0.9722-6.0724 1.4022-1.1637 1.6208-0.97171 1.7569 1.5434 0.08554 1.5798 0.0682 3.8869-0.03854 5.1269-0.18347 2.1313 0.10597 2.2331 5.2989 1.8634 3.4763-0.24748 5.6933 0.02624 6.0385 0.74555 0.3 0.62513 0.38012-1.2928 0.17803-4.2621-0.20208-2.9693-0.14682-6.2423 0.1228-7.2733 0.45704-1.7477 0.57453-1.7593 1.7359-0.17108 1.1473 1.569 1.3419 1.5237 2.4647-0.57437l1.2191-2.2779 1.4415 2.0581c0.85131 1.2154 1.1905 3.0583 0.82843 4.5009-0.39804 1.5859-0.11403 2.7398 0.8097 3.2896 0.78254 0.46572 1.9317 1.7468 2.5537 2.8468s1.1446 1.4072 1.1613 0.68261c0.01904-0.82496 0.72534-1.0968 1.8895-0.72732 3.0499 0.96801 5.1409-0.43003 5.1409-3.4373 0-1.5224 0.29954-4.2657 0.66564-6.0962 0.56366-2.8183 0.78269-3.029 1.4297-1.375 0.42025 1.0742 0.79571 4.1408 0.83436 6.8145l0.07029 4.8613 3.75-0.64549c7.4777-1.2871 9.2501-1.7481 9.2537-2.4066 0.00203-0.36879 5.946-0.72744 13.209-0.79698 7.9514-0.07613 13.34-0.53121 13.544-1.1438 0.18652-0.55957 1.2176-0.78769 2.2912-0.50693s1.952 0.04098 1.952-0.53283c0-0.57382-0.7875-1.2491-1.75-1.5006-1.4765-0.38584-1.4956-0.47546-0.12244-0.57333 0.89515-0.0638 2.1878 0.559 2.8724 1.384 1.6244 1.9573 3.458 1.8991 5.5327-0.17553 1.3494-1.3494 2.042-1.4467 3.5579-0.5 2.5306 1.5804 2.5981 1.5522 3.3368-1.3909 0.80867-3.222 4.0204-2.9375 4.1881 0.37104 0.06349 1.2528-1.2244 9.7968-2.8621 18.987-2.2977 12.894-3.0335 20.248-3.2226 32.209l-0.2451 15.5-2.3928 0.15146c-1.316 0.0833-4.0803 0.1958-6.1428 0.25s-3.75 0.59732-3.75 1.207c0 0.65132 0.93128 0.87467 2.2583 0.54161 1.2421-0.31174 2.8548-0.19815 3.5838 0.25243 2.0044 1.2388-1.1655 2.1829-4.8531 1.4454-1.7528-0.35056-2.9891-0.17676-2.9891 0.4202 0 1.913 3.2788 2.2778 9.3908 1.0448 5.5284-1.1153 5.824-1.2964 3.1092-1.9043l-3-0.67182 3.191-0.11832c3.6164-0.13408 4.7242 0.99827 3.8062 3.8906-0.44174 1.3918-1.5146 1.991-3.5646 1.991-1.8128 0-2.8371 0.47733-2.6826 1.25 0.16436 0.82179-1.2135 1.3152-4.0221 1.4402-2.4581 0.10945-4.0253-0.209-3.691-0.75 0.33073-0.53512-1.4086-0.94022-4.0369-0.94022-2.9596 0-4.3859 0.37566-3.9715 1.046 0.43847 0.70947-1.039 0.82245-4.592 0.35113-3.4644-0.45957-5.0255-0.35033-4.6096 0.32259 0.40336 0.65266-2.2392 1.0787-7.3698 1.1882-4.3993 0.09392-8.5518 0.37587-9.2278 0.62656-0.67604 0.2507-2.5792 0.04666-4.2292-0.45342-2.5043-0.75902-1.7608-0.95038 4.5-1.1582l7.5-0.24895-5.5-0.67401c-6.8276-0.8367-4.0809-1.1364 13.609-1.4848 14.446-0.28451 21.354-1.9892 9.6967-2.3929-3.7432-0.12961-8.1558-0.50333-9.8058-0.83049s-6.7434-0.70761-11.319-0.84543c-4.5753-0.13783-8.5878-0.51967-8.9167-0.84852-0.58124-0.58124 10.241-1.0467 14.215-0.61136 1.0887 0.11928 6.2637-0.14692 11.5-0.59156 8.4855-0.72053 9.0313-0.87835 5.0206-1.4515l-4.5-0.64309 4.309-0.1502c7.7133-0.26885 3.4593-1.9138-7.051-2.7265-5.6419-0.43627-10.541-0.72816-10.887-0.64865-0.34615 0.07951-3.7212 0.40023-7.5 0.71271-21.189 1.7522-29.201 3.9136-20.871 5.6306 2.0301 0.41845 0.81781 0.66092-3.75 0.75-3.9211 0.07647-6.75-0.28746-6.75-0.86836 0-0.55-1.3561-1-3.0136-1s-3.9663-0.5625-5.1307-1.25c-1.6937-1-2.2076-1-2.5698 0-0.55228 1.525-5.4796 1.6564-6.9507 0.18534-1.242-1.242-11.336-2.2998-11.333-1.1876 0.00128 0.41376-3.4862 0.68384-7.75 0.60018-6.0723-0.11914-6.8855 0.01265-3.7523 0.6081l4 0.7602-4.81 0.14c-2.9834 0.08803-4.5744-0.23771-4.191-0.8581 0.33992-0.55-0.33508-1-1.5-1s-1.8533 0.42831-1.5298 0.9518c0.36806 0.59554-7.4701 0.81014-20.941 0.57334-12.823-0.22541-21.529-0.00371-21.529 0.5482 0 0.50966-1.6875 0.9799-3.75 1.045-3.6491 0.11514-3.6693 0.13606-0.75 0.77745 5.9867 1.3154-0.43946 2.1042-17.141 2.1042-10.73 0-16.262-0.34879-15.859-1 0.35667-0.5771-0.5699-0.99352-2.191-0.98469-2.0671 0.01127-2.4311 0.25445-1.3782 0.92077 2.3053 1.4588-4.9506 2.4095-19.013 2.491-9.6644 0.05603-12.582 0.37652-12.583 1.3821-0.00087 0.8403 1.1029 1.2359 3.082 1.1046 1.6958-0.11251 5.478-0.13914 8.4048-0.05919 5.0268 0.13732 5.2265 0.24034 3.6063 1.8605-1.6201 1.6201-1.2503 1.7836 6.6786 2.9526 4.6165 0.68064 11.711 0.98831 15.765 0.68373 5.2332-0.39314 7.1741-0.23435 6.691 0.54739-0.4292 0.69447 0.28639 1.1012 1.9375 1.1012 1.4399 0 2.3591-0.41891 2.0427-0.9309-1.0578-1.7115 1.0334-1.9838 18.751-2.4414 9.6901-0.2503 18.05-0.72169 18.577-1.0475 1.23-0.76015 8.1251-0.28556 8.1277 0.55944 0.0031 0.99002 12.156 0.14702 15.317-1.0625 3.616-1.3836 16.031-1.4467 15.185-0.07714-0.33992 0.55-1.8933 1-3.452 1s-3.0749 0.62786-3.3694 1.3952c-0.41929 1.0927 0.28841 1.2848 3.2634 0.88572 2.2516-0.302 4.0792-0.0557 4.4874 0.60476 0.45096 0.72966-0.45352 1.1351-2.6204 1.1745-1.82 0.03313-5.3945 0.26678-7.9434 0.51921-2.5489 0.25244-5.9239-0.06129-7.5-0.69717-4.6504-1.8762-11.241-2.6943-11.837-1.4694-0.35815 0.73595-0.71743 0.68332-1.1124-0.16294-0.69493-1.4891-3.1108-1.6639-3.5833-0.25921-0.42848 1.2736-22.456 3.2709-31.833 2.8864-2.475-0.10148-5.4-0.15005-6.5-0.10794-54.626 2.0912-61.929 2.6694-61.098 4.8367 0.6047 1.5758-0.51959 1.8555-1.9523 0.48573zm-28.45-6.2001c0-0.67936 1.0645-0.88988 2.75-0.54386 2.0075 0.41213 1.67 0.06961-1.25-1.2686-2.2-1.0082-6.7-2.0907-10-2.4054-3.8281-0.36507-5.276-0.25403-4 0.30676 1.6548 0.72724 1.3959 0.89372-1.5 0.96455-2.6423 0.06462-3.1324 0.32315-2 1.055 1.1352 0.73365 0.69536 0.9731-1.809 0.98469-1.9482 0.00901-3.0548 0.42655-2.691 1.0153 0.87843 1.4213 20.5 1.3176 20.5-0.10841zm72.188 0.4253c-0.72188-0.28887-1.5844-0.25335-1.9167 0.07894-0.33229 0.3323 0.25834 0.56864 1.3125 0.52522 1.165-0.04798 1.4019-0.28494 0.60417-0.60416zm-63-1c-0.72188-0.28887-1.5844-0.25335-1.9167 0.07894-0.33229 0.3323 0.25834 0.56864 1.3125 0.52522 1.165-0.04798 1.4019-0.28494 0.60417-0.60416zm144.06 0.02083c-0.6875-0.27741-1.8125-0.27741-2.5 0s-0.125 0.50439 1.25 0.50439 1.9375-0.22697 1.25-0.50439zm-102.61-1.83c0.82078-0.82078 1.2121-1.9458 0.86955-2.5-0.75461-1.221-4.5047-1.3524-4.5047-0.15786 0 0.4674-3.4407 0.629-7.6461 0.35912-5.5757-0.35783-7.4552-0.18177-6.941 0.65019 0.38781 0.62748 1.8036 1.1409 3.1461 1.1409s2.441 0.45 2.441 1c0 1.6355 10.933 1.2095 12.635-0.49233zm60.552 0.80922c-0.72188-0.28887-1.5844-0.25335-1.9167 0.07894-0.33229 0.3323 0.25834 0.56864 1.3125 0.52522 1.165-0.04798 1.4019-0.28494 0.60417-0.60416zm-95.188-1.3169c-1.9827-1.2813-12-1.2813-12 0 0 0.56941 2.9065 0.99341 6.75 0.98469 4.7272-0.01073 6.3005-0.30581 5.25-0.98469zm104.25 0.33772c-0.6875-0.27741-1.8125-0.27741-2.5 0s-0.125 0.50439 1.25 0.50439 1.9375-0.22697 1.25-0.50439zm32.938-0.020829c-0.72188-0.28887-1.5844-0.25335-1.9167 0.07894-0.33229 0.3323 0.25834 0.56864 1.3125 0.52522 1.165-0.04798 1.4019-0.28494 0.60417-0.60416zm-131.46-1.0099c-0.97297-0.25354-2.323-0.23687-3 0.03705-0.67703 0.27393 0.11903 0.48137 1.769 0.46099s2.2039-0.2445 1.231-0.49804zm-17.543-2.9901c-0.72188-0.28887-1.5844-0.25335-1.9167 0.07894-0.33229 0.3323 0.25834 0.56864 1.3125 0.52522 1.165-0.04798 1.4019-0.28494 0.60417-0.60416zm10.574-0.00397c-0.95609-0.25029-2.7561-0.25937-4-0.02018s-0.46166 0.44398 1.7383 0.45508 3.2178-0.18461 2.2617-0.4349zm-108.01-1.0022c-0.9625-0.25153-2.5375-0.25153-3.5 0s-0.175 0.45733 1.75 0.45733 2.7125-0.2058 1.75-0.45732zm89.899-0.6266c0.37623-0.37624 1.3966-0.67718 2.2674-0.66876 1.3918 0.01346 1.4018 0.14238 0.08333 1.0655-1.1469 0.80299-0.91153 0.89062 1 0.37229 3.7379-1.0136 4.824-2.4531 1.8509-2.4531-6.8792 0-18.092 1.3897-16.308 2.0212 2.3857 0.84437 10.161 0.60837 11.106-0.33711zm15.851-0.68407c-0.33992-0.55-1.9415-1-3.559-1s-2.941 0.45-2.941 1 1.6016 1 3.559 1c2.118 0 3.3088-0.40488 2.941-1zm9 0c-0.33992-0.55-1.293-1-2.118-1s-1.2219 0.45-0.88197 1c0.33992 0.55 1.293 1 2.118 1s1.2219-0.45 0.88197-1zm258.42-2.6407c1.0035-0.86538-3.5663-0.22744-4.9167 0.68637-1.0955 0.74131-0.69092 0.83408 1.5 0.34401 1.65-0.36908 3.1875-0.83275 3.4167-1.0304zm-279.39-1.17c-0.30789-0.30789-1.1148-0.00064-1.7931 0.68278-0.98026 0.98762-0.8654 1.1025 0.5598 0.5598 0.98622-0.37553 1.5412-0.93469 1.2333-1.2426zm60.724 1.1446c-0.6875-0.27741-1.8125-0.27741-2.5 0s-0.125 0.50439 1.25 0.50439 1.9375-0.22697 1.25-0.50439zm27.907-1.4033c-1.2887-0.51635-4.6637-1.1084-7.5-1.3156-2.8363-0.20723-4.1368-0.17561-2.89 0.07026 1.2468 0.24588 2.0078 0.86642 1.691 1.379-0.33225 0.53759 1.8821 0.90512 5.233 0.86855 4.6566-0.05081 5.3442-0.24963 3.466-1.0022zm8.3431 0.06559c-1.1-0.47269-2.675-0.88417-3.5-0.9144-1.3333-0.04887-1.3333 0.05273 0 0.9144 0.825 0.53316 2.4 0.94464 3.5 0.9144 2-0.05497 2-0.05497 0-0.9144zm-143.5-7.0544c0-0.82333-17.823-1.7003-22.25-1.0948-1.5125 0.20688-2.75 0.78909-2.75 1.2938 0 0.51764 5.4489 0.8383 12.5 0.73561 6.875-0.10013 12.5-0.52071 12.5-0.93462zm-213.75-17.608c-0.6875-0.27741-1.8125-0.27741-2.5 0s-0.125 0.50439 1.25 0.50439 1.9375-0.22697 1.25-0.50439zm481.75-12.369c0-0.56727-0.71273-1.3049-1.5838-1.6392-1.2859-0.49346-1.333-0.78401-0.25-1.5447 1.0606-0.74505 1.0266-0.8531-0.16615-0.52751-0.825 0.22521-1.3875 0.70947-1.25 1.0761 0.1375 0.36667 0.25 1.3417 0.25 2.1667s0.675 1.5 1.5 1.5 1.5-0.46412 1.5-1.0314zm5.2246 0.47348c1.0026-1.0026-0.4231-4.4421-1.8412-4.4421-2.042 0-1.6852 2.9879 0.36663 3.0703 1.4964 0.0601 1.4602 0.19481-0.25 0.92971-1.471 0.63209-1.5812 0.87802-0.41667 0.92971 0.87084 0.03866 1.8344-0.18077 2.1412-0.48761zm2.4314-3.7111c-0.27393-0.67703-0.48137 0.11903-0.46099 1.769s0.2445 2.2039 0.49804 1.231c0.25354-0.97297 0.23687-2.323-0.03705-3zm-365.19-3.67c1.0762-1.7414-1.6418-2.3132-3.2675-0.68742-1.4911 1.4911-1.4489 1.6183 0.53695 1.6183 1.1854 0 2.4142-0.41891 2.7306-0.9309zm87.543-8.0691c0-0.55-0.675-1-1.5-1s-1.5 0.45-1.5 1 0.675 1 1.5 1 1.5-0.45 1.5-1zm180.25 0.01365c1.6995-0.00843 2.75-0.55484 2.75-1.4303 0-0.77916 0.5625-1.6176 1.25-1.8631 2.2534-0.80479 0.34676-1.501-5.5056-2.0103-6.3352-0.55138-7.1218-0.06159-6.1458 3.827 0.52195 2.0796 1.1029 2.5099 2.7806 2.0596 1.1664-0.31306 3.3583-0.57534 4.8708-0.58285zm-205.83-7.6206c1.0123-0.38847 1.5818-1.8285 1.5818-4 0-3.7681-0.58079-4.0754-3.6456-1.9287-1.4877 1.042-1.9509 2.1957-1.6059 4 0.50641 2.6491 1.0491 2.9343 3.6698 1.9287zm-102.42-1.39c0-0.55-0.45-1-1-1s-1 0.45-1 1 0.45 1 1 1 1-0.45 1-1zm257-1.059c0-0.58246-0.45-0.7809-1-0.44098s-1 0.81648-1 1.059c0 0.24254 0.45 0.44098 1 0.44098s1-0.47656 1-1.059zm-75.375-5.066c-0.34375-1.7188-0.625-3.5188-0.625-4 0-0.48125-0.8449-0.875-1.8776-0.875-2.0866 0-4.4742 2.3149-3.4471 3.342 0.3619 0.36189 0.13299 0.65799-0.50867 0.65799-0.64167 0-1.1667-0.9-1.1667-2 0-1.4807-0.66667-2-2.5674-2-2.2002 0-2.4687 0.32181-1.8776 2.25 0.37938 1.2375 1.1398 2.8125 1.6898 3.5 1.5446 1.9307 4.8785 1.4943 5.456-0.71417 0.43899-1.6787 0.71606-1.7617 1.9064-0.57143 0.76601 0.76601 1.3927 1.8749 1.3927 2.4642 0 0.58929 0.50625 1.0714 1.125 1.0714 0.72667 0 0.9037-1.1065 0.5-3.125zm-10.467-1.875c0-1.375 0.22697-1.9375 0.50439-1.25 0.27741 0.6875 0.27741 1.8125 0 2.5s-0.50439 0.125-0.50439-1.25zm210.84 1c0-0.55-0.45-1-1-1s-1 0.45-1 1 0.45 1 1 1 1-0.45 1-1zm-81.883-6.5c0.94061-9.1486 0.40515-10.5-4.1602-10.5-4.2224 0-10.191 1.9656-8.2067 2.7025 0.78903 0.29297 1.25 2.4617 1.25 5.8808 0 4.6951-0.25856 5.4167-1.941 5.4167-2.1208 0-3.4027 1.323-2.3255 2.4002 0.37352 0.37351 3.8488 0.54878 7.7228 0.38948l7.0437-0.28965 0.61689-6zm-116.76 1c-0.31659-0.825-0.96334-1.5-1.4372-1.5-0.4739 0-0.60261 0.675-0.28603 1.5 0.31659 0.825 0.96334 1.5 1.4372 1.5 0.4739 0 0.60261-0.675 0.28603-1.5zm70.638-0.5c0-1.1111-0.66667-2-1.5-2-1.5224 0-2.0513 2.1154-0.83333 3.3333 1.2678 1.2678 2.3333 0.65891 2.3333-1.3333zm-180 0c0-0.55-0.47656-1-1.059-1-0.58246 0-0.7809 0.45-0.44098 1s0.81648 1 1.059 1c0.24254 0 0.44098-0.45 0.44098-1zm171.81-0.9375c0.25-0.75-0.125-1.125-0.875-0.875-0.72188 0.24062-1.5094 1.0281-1.75 1.75-0.25 0.75 0.125 1.125 0.875 0.875 0.72188-0.24062 1.5094-1.0281 1.75-1.75zm-145.15-2.3125c-0.27741-0.6875-0.50439-0.125-0.50439 1.25s0.22697 1.9375 0.50439 1.25c0.27741-0.6875 0.27741-1.8125 0-2.5zm178.99-11.207c-0.32568-0.84872-1.0601-1.5431-1.632-1.5431-0.65816 0-0.5918 0.71745 0.18076 1.9545 1.3798 2.2094 2.3513 1.934 1.4512-0.41139zm-125.47-4.7598c-0.71756-0.71756-1.1833-0.7766-1.1833-0.15 0 1.3348 1.1826 2.5174 1.85 1.85 0.28417-0.28416-0.01583-1.0492-0.66667-1.7zm58.817-20.176c0-1.822-2.7556-2.8432-4.7144-1.747-1.066 0.59657-1.1939 1.0786-0.41406 1.5606 0.62063 0.38357 1.1284 0.12442 1.1284-0.5759 0-0.85958 0.55701-0.71629 1.7143 0.44098 2.0749 2.0749 2.2857 2.1045 2.2857 0.32128zm3.5 0.39301c-0.33992-0.55-0.81648-1-1.059-1-0.24254 0-0.44098 0.45-0.44098 1s0.47656 1 1.059 1c0.58246 0 0.7809-0.45 0.44098-1zm-9.5-18c0-0.55-0.45-1-1-1s-1 0.45-1 1 0.45 1 1 1 1-0.45 1-1zm7.9093 150.08c0.77512-0.49069 2.0126-0.66066 2.75-0.3777 2.1146 0.81146 1.5769 1.3018-1.4093 1.2852-2.0014-0.01115-2.3664-0.25818-1.3407-0.90748zm49.091-0.07721c0-0.55 1.125-1 2.5-1s2.5 0.45 2.5 1-1.125 1-2.5 1-2.5-0.45-2.5-1zm-188-1.017c0.825-0.5238 4.425-1.0425 8-1.1526 6.3763-0.19648 6.4001-0.20728 1.25-0.56757-5.5649-0.38931-7.379-2.2628-2.191-2.2628 2.0809 0 2.8278-0.37408 2.336-1.1699-0.49297-0.79765-0.16751-0.95675 1.0228-0.5 0.96021 0.36847 3.509 0.66994 5.664 0.66994 4.4675 0 5.3144 1.6556 1.1682 2.2838-2.4293 0.36801-2.3419 0.44145 0.75 0.6298 3.3898 0.20651 3.4212 0.24493 1 1.2199-3.3386 1.3444-21.025 2.1352-19 0.84951zm205.25-0.67231c0.9625-0.25153 2.5375-0.25153 3.5 0s0.175 0.45733-1.75 0.45733-2.7125-0.2058-1.75-0.45732zm50.12-0.51062c2.6798-0.48788 6.0048-0.50841 7.3931-0.04565 1.8351 0.61169 0.50707 0.85346-4.8701 0.88666-7.2393 0.0447-7.2918 0.0272-2.523-0.84101zm-319.1-1.4042c0.3323-0.33229 1.1948-0.36781 1.9167-0.07894 0.79773 0.31922 0.56078 0.55618-0.60417 0.60416-1.0542 0.04342-1.6448-0.19292-1.3125-0.52522zm356.09-0.90199c1.5754-0.82161 3.3754-1.4911 4-1.4877 0.62463 0.0033884-0.15325 0.67839-1.7286 1.5s-3.3754 1.4911-4 1.4877c-0.62464-0.00339 0.15324-0.67839 1.7286-1.5zm13.207-2.2078c1.1241-1.1241 2.206-1.119 6.636 0.03117l5.2929 1.3742-6.636-0.03116c-5.5541-0.02609-6.417-0.25014-5.2929-1.3742zm-69.3 0.10983c0.33229-0.33229 1.1948-0.36781 1.9167-0.07894 0.79773 0.31922 0.56078 0.55618-0.60417 0.60416-1.0542 0.04342-1.6448-0.19292-1.3125-0.52522zm85.154-0.27408c0.64653-1.0461-4.1649-2.1218-9.4907-2.1218-2.0988 0-4.0951-0.45165-4.4363-1.0037-0.34116-0.55202-1.7848-0.71139-3.2082-0.35416-1.4421 0.36194-2.3421 0.25287-2.0329-0.24633 0.5538-0.89393-7.8106-0.92967-11.703-0.04999-1.1295 0.25528-2.9537 0.11908-4.0537-0.30265-2.43-0.93163 4.6324-2.0633 14.195-2.2746 3.4606-0.07648 5.9454-0.54106 5.6293-1.0525-0.31123-0.50357 0.35886-0.42069 1.4891 0.18418s4.222 1.1705 6.8707 1.2569l4.8157 0.15711-5 0.68579c-2.75 0.37719-4.55 0.80582-4 0.95252 2.1858 0.58302 8.2197 1.2841 12.155 1.4122 2.285 0.074399 3.9638 0.4439 3.7306 0.8211-0.3967 0.64188 3.3908 1.3432 11.615 2.1505 1.925 0.18898-1.1391 0.41561-6.809 0.50363-5.7096 0.08864-10.067-0.23179-9.7662-0.71821zm39.075-1.1203c2.75-0.39434 7.7-0.99031 11-1.3244l6-0.60739-5 1.3692c-2.75 0.75305-7.7 1.349-11 1.3244l-6-0.044801 5-0.71699zm-71.229-0.60559c0.33229-0.33229 1.1948-0.36781 1.9167-0.07894 0.79773 0.31922 0.56078 0.55618-0.60417 0.60416-1.0542 0.04342-1.6448-0.19292-1.3125-0.52522zm4.4792-0.05811c0.6875-0.27741 1.8125-0.27741 2.5 0s0.125 0.50439-1.25 0.50439-1.9375-0.22697-1.25-0.50439zm8.5208 0.05811c0.33229-0.33229 1.1948-0.36781 1.9167-0.07894 0.79773 0.31922 0.56078 0.55618-0.60417 0.60416-1.0542 0.04342-1.6448-0.19292-1.3125-0.52522zm76.239-1.3795c-0.34546-0.55897 0.07344-1.0163 0.9309-1.0163 1.7565 0 2.0152 0.60006 0.62812 1.4573-0.512 0.31644-1.2136 0.11799-1.559-0.44098zm-201.51-1.2724c-2.5213-0.77488-2.9885-1.1939-1.6709-1.4984 2.4559-0.56755 6.6709 0.55301 6.6709 1.7735 0 1.1595-0.40454 1.1372-5-0.2751zm8 0.26787c0-0.5565 1.0688-1.0118 2.375-1.0118s3.8938-0.25496 5.75-0.56657c2.3059-0.3871 2.8998-0.27109 1.875 0.36623-2.336 1.4527-10 2.3817-10 1.2122zm87-0.043196c0-0.53274 0.675-0.96862 1.5-0.96862s1.5 0.17686 1.5 0.39301c0 0.21616-0.675 0.65203-1.5 0.96862-0.825 0.31658-1.5 0.13972-1.5-0.39301zm-328.25-0.67435c1.2375-0.23835 3.2625-0.23835 4.5 0s0.225 0.43337-2.25 0.43337-3.4875-0.19502-2.25-0.43337zm216 0.043452c0.6875-0.27741 1.8125-0.27741 2.5 0s0.125 0.50439-1.25 0.50439-1.9375-0.22697-1.25-0.50439zm38.25-0.35357c0-1.2174 2.8139-1.9842 7.2818-1.9842 2.4191 0 3.7262 0.36232 3.1682 0.87815-1.2321 1.1389-10.45 2.1145-10.45 1.106zm41.5 0.01585c-2.5482-1.095 0.08083-1.095 3.5 0 2.0097 0.64363 2.1078 0.8064 0.5 0.83003-1.1 0.01617-2.9-0.35734-4-0.83003zm27.771 0.39583c0.33229-0.33229 1.1948-0.36781 1.9167-0.07894 0.79773 0.31922 0.56078 0.55618-0.60417 0.60416-1.0542 0.04342-1.6448-0.19292-1.3125-0.52522zm-48.49-1.1c1.2439-0.23919 3.0439-0.23011 4 0.020181 0.95609 0.25029-0.06166 0.446-2.2617 0.4349s-2.9822-0.21589-1.7383-0.45508zm12.238-0.29274c-0.825-0.53316-1.05-0.96937-0.5-0.96937s1.675 0.43622 2.5 0.96937c0.825 0.53316 1.05 0.96937 0.5 0.96937s-1.675-0.43622-2.5-0.96937zm91 0.21811c0-0.43004 1.1497-0.87705 2.5549-0.99334 1.4806-0.12254 2.2968 0.20623 1.941 0.78189-0.72373 1.171-4.4959 1.3484-4.4959 0.21145zm-95.729-1.8223c0.33229-0.33229 1.1948-0.36781 1.9167-0.07894 0.79773 0.31922 0.56078 0.55618-0.60417 0.60416-1.0542 0.04342-1.6448-0.19292-1.3125-0.52522zm-205.03-2.5755c-1.0772-0.42088-0.02608-0.75178 2.7603-0.86894 2.475-0.10407 5.5864-0.2482 6.9141-0.32029 1.3278-0.07208 2.5654 0.31894 2.7502 0.86894 0.38029 1.1315-9.6842 1.391-12.425 0.32029zm304.01 0.49038c0.9625-0.25153 2.5375-0.25153 3.5 0s0.175 0.45733-1.75 0.45733-2.7125-0.2058-1.75-0.45732zm-100.25-2.2683c5.225-0.33373 9.9275-0.25477 10.45 0.17545s-3.7525 0.70327-9.5 0.60677l-10.45-0.17545zm26.731 0.30173c0.67703-0.27392 2.027-0.29059 3-0.03705 0.97297 0.25354 0.41903 0.47766-1.231 0.49804s-2.4461-0.18706-1.769-0.46099zm6.019-0.00634c0.6875-0.27741 1.8125-0.27741 2.5 0s0.125 0.50439-1.25 0.50439-1.9375-0.22697-1.25-0.50439zm59.987-0.52165c-0.70036-0.44483 0.82325-0.79209 3.5134-0.80076 2.6125-0.00842 4.75 0.16046 4.75 0.37528 0 0.81191-7.0809 1.1765-8.2634 0.42548zm-394.47-2.4202c0.3323-0.33229 1.1948-0.36781 1.9167-0.07894 0.79773 0.31922 0.56078 0.55618-0.60417 0.60416-1.0542 0.04342-1.6448-0.19292-1.3125-0.52522zm28.843-0.3252c-0.85973-0.53135-0.96201-1.0467-0.29014-1.4619 0.57071-0.35272 1.3388-0.15403 1.7069 0.44153 0.91846 1.4861 0.188 2.0122-1.4168 1.0204zm-18.35-0.77c1.2439-0.23919 3.0439-0.23011 4 0.020181 0.95609 0.25029-0.06166 0.446-2.2617 0.4349s-2.9822-0.21589-1.7383-0.45508zm37.238 0.26628c0-0.24254 0.45-0.7191 1-1.059 0.55-0.33992 1-0.14148 1 0.44098s-0.45 1.059-1 1.059-1-0.19844-1-0.44098zm352.76-0.27c1.2439-0.23919 3.0439-0.23011 4 0.020181 0.95609 0.25029-0.06166 0.446-2.2617 0.4349s-2.9822-0.21589-1.7383-0.45508zm-263.76-68.3c0-0.55 0.45-1 1-1s1 0.45 1 1-0.45 1-1 1-1-0.45-1-1zm37.195-62.5c-0.02038-1.65 0.18706-2.4461 0.46099-1.769 0.27392 0.67703 0.29059 2.027 0.03705 3-0.25354 0.97297-0.47766 0.41903-0.49804-1.231zm14.456 1.032c-0.30982-0.80739-0.13297-1.7339 0.39301-2.059 0.52598-0.32507 0.95633 0.33552 0.95633 1.468 0 2.4146-0.55611 2.6582-1.3493 0.59104zm0.62017-39.136c0.33229-0.33229 1.1948-0.36782 1.9167-0.078947 0.79773 0.31923 0.56078 0.55618-0.60417 0.60417-1.0542 0.043421-1.6448-0.19293-1.3125-0.52522zm-30-2c0.33229-0.33229 1.1948-0.36782 1.9167-0.078947 0.79773 0.31923 0.56078 0.55618-0.60417 0.60417-1.0542 0.043421-1.6448-0.19293-1.3125-0.52522zm11.88-7.391c0-1.375 0.22697-1.9375 0.50439-1.25 0.27741 0.6875 0.27741 1.8125 0 2.5s-0.50439 0.125-0.50439-1.25zm1.8421-11.819c0-2.5193 1.5848-3.7059 2.3358-1.7488 0.29994 0.78163-0.1029 1.9591-0.89521 2.6167-1.1749 0.9751-1.4406 0.81506-1.4406-0.86787zm1.3703-8.1946c0.27026-2.3524 1.1959-4.8884 2.057-5.6355 0.86107-0.74714 1.1416-0.84121 0.62333-0.20904-0.51825 0.63217-0.68941 2.4137-0.38036 3.9589 0.37803 1.8902 0.01326 3.3582-1.1147 4.4861-1.5688 1.5688-1.645 1.4016-1.1852-2.6005z"/>
  </g>
  <metadata>
    <rdf:RDF>
      <cc:Work>
        <dc:format>image/svg+xml</dc:format>
        <dc:type rdf:resource="http://purl.org/dc/dcmitype/StillImage"/>
        <cc:license rdf:resource="http://creativecommons.org/licenses/publicdomain/"/>
        <dc:publisher>
          <cc:Agent rdf:about="http://openclipart.org/">
            <dc:title>Openclipart</dc:title>
          </cc:Agent>
        </dc:publisher>
        <dc:title>USS-Mertz</dc:title>
        <dc:date>2008-04-18T22:04:36</dc:date>
        <dc:description>clip art, clipart, image, media, png, public domain, ship, ship, silhouette, silhouette, svg, war, war, </dc:description>
        <dc:source>http://openclipart.org/detail/16445/uss-mertz-by-stefanvonhalenbach-16445</dc:source>
        <dc:creator>
          <cc:Agent>
            <dc:title>StefanvonHalenbach</dc:title>
          </cc:Agent>
        </dc:creator>
        <dc:subject>
          <rdf:Bag>
            <rdf:li>clip art</rdf:li>
            <rdf:li>clipart</rdf:li>
            <rdf:li>image</rdf:li>
            <rdf:li>media</rdf:li>
            <rdf:li>png</rdf:li>
            <rdf:li>public domain</rdf:li>
            <rdf:li>ship</rdf:li>
            <rdf:li>silhouette</rdf:li>
            <rdf:li>svg</rdf:li>
            <rdf:li>war</rdf:li>
          </rdf:Bag>
        </dc:subject>
      </cc:Work>
      <cc:License rdf:about="http://creativecommons.org/licenses/publicdomain/">
        <cc:permits rdf:resource="http://creativecommons.org/ns#Reproduction"/>
        <cc:permits rdf:resource="http://creativecommons.org/ns#Distribution"/>
        <cc:permits rdf:resource="http://creativecommons.org/ns#DerivativeWorks"/>
      </cc:License>
    </rdf:RDF>
  </metadata>
</svg>
